/* XPM */
static char *result[] = {
/* columns rows colors chars-per-pixel */
"64 64 202 2 ",
"   c black",
".  c #663931",
"X  c #4A4F70",
"o  c #4B5072",
"O  c #4C5173",
"+  c #4D5274",
"@  c #4D5275",
"#  c #4D5375",
"$  c #4E5375",
"%  c #4E5376",
"&  c #4E5476",
"*  c #4F5477",
"=  c #4F5478",
"-  c #4F5578",
";  c #505578",
":  c #505579",
">  c #505679",
",  c #50567A",
"<  c #51567A",
"1  c #51567B",
"2  c #51577B",
"3  c #52577C",
"4  c #52587C",
"5  c #52587D",
"6  c #53587D",
"7  c #53597D",
"8  c #53597E",
"9  c #54597E",
"0  c #54597F",
"q  c #545A7F",
"w  c #545A80",
"e  c #555A80",
"r  c #555B80",
"t  c #555B81",
"y  c #565B81",
"u  c #565C82",
"i  c #565C83",
"p  c #575C83",
"a  c #575D83",
"s  c #575D84",
"d  c #585E85",
"f  c #585E86",
"g  c #595F86",
"h  c #595F87",
"j  c #596087",
"k  c #5A6087",
"l  c #5A6088",
"z  c #5A6089",
"x  c #5A6189",
"c  c #5B6189",
"v  c #5B618A",
"b  c #5B628A",
"n  c #5C628A",
"m  c #5C628B",
"M  c #5C638C",
"N  c #5D638C",
"B  c #5D638D",
"V  c #5D648D",
"C  c #5E648E",
"Z  c #5E658F",
"A  c #5F658F",
"S  c #5F6590",
"D  c #5F6690",
"F  c #606691",
"G  c #606791",
"H  c #606792",
"J  c #616792",
"K  c #616793",
"L  c #616893",
"P  c #626893",
"I  c #626894",
"U  c #626994",
"Y  c #626995",
"T  c #636995",
"R  c #636A96",
"E  c #646A97",
"W  c #646B97",
"Q  c #646B98",
"!  c #656B98",
"~  c #656C99",
"^  c #656C9A",
"/  c #666C9A",
"(  c #666D9A",
")  c #666D9B",
"_  c #676D9B",
"`  c #676E9B",
"'  c #676E9C",
"]  c #676E9D",
"[  c #686F9D",
"{  c #686F9E",
"}  c #69709E",
"|  c #69709F",
" . c #6A71A0",
".. c #6A71A1",
"X. c #6A72A1",
"o. c #6B72A1",
"O. c #6B72A2",
"+. c #6C73A3",
"@. c #6C73A4",
"#. c #6C74A4",
"$. c #6D74A4",
"%. c #6D74A5",
"&. c #6D75A5",
"*. c #6D75A6",
"=. c #6E75A6",
"-. c #6E76A7",
";. c #6F76A7",
":. c #6F76A8",
">. c #6F77A8",
",. c #7077A9",
"<. c #7078A9",
"1. c #7078AA",
"2. c #7178AA",
"3. c #7178AB",
"4. c #7179AB",
"5. c #7279AC",
"6. c #727AAC",
"7. c #727AAD",
"8. c #737AAD",
"9. c #737BAE",
"0. c #737BAF",
"q. c #747CAF",
"w. c #747CB0",
"e. c #757DB0",
"r. c #757DB1",
"t. c #767EB2",
"y. c #767EB3",
"u. c #777FB3",
"i. c #777FB4",
"p. c #7780B5",
"a. c #7880B5",
"s. c #7880B6",
"d. c #7881B6",
"f. c #7981B7",
"g. c #7982B8",
"h. c #7A82B8",
"j. c #7A82B9",
"k. c #7A83B9",
"l. c #7B83B9",
"z. c #7B83BA",
"x. c #7B84BA",
"c. c #7C84BB",
"v. c #7C85BC",
"b. c #7D85BC",
"n. c #7D85BD",
"m. c #7D86BD",
"M. c #7E86BE",
"N. c #7E87BF",
"B. c #7F87C0",
"V. c #7F88C0",
"C. c #7F88C1",
"Z. c #8088C1",
"A. c #8089C2",
"S. c #8189C2",
"D. c #8189C3",
"F. c #818AC3",
"G. c #828AC4",
"H. c #828BC4",
"J. c #828BC5",
"K. c #838BC5",
"L. c #838CC6",
"P. c #838CC7",
"I. c #848DC7",
"U. c #848DC8",
"Y. c #858EC9",
"T. c #858ECA",
"R. c #868FCA",
"E. c #868FCB",
"W. c #8790CC",
"Q. c #8790CD",
"!. c #8891CD",
"~. c #8891CE",
"^. c #8992CE",
"/. c #8992CF",
"(. c #8A93D0",
"). c #8A93D1",
"_. c #8A94D1",
"`. c #8B94D2",
"'. c #8B95D3",
"]. c #8C95D4",
"[. c #8C96D4",
"{. c #8D96D5",
"}. c #8D97D6",
"|. c #8E97D6",
" X c #8E98D7",
".X c #8F98D7",
"XX c #8F98D8",
"oX c #8F99D8",
"OX c #8F99D9",
"+X c #9099D9",
"@X c #909ADA",
"#X c #919ADB",
"$X c #919BDB",
"%X c #919BDC",
"&X c #929BDC",
"*X c #929CDD",
"=X c #939CDE",
"-X c #939DDE",
";X c #939DDF",
":X c #949DDF",
">X c #949EE0",
",X c #959FE1",
/* pixels */
". . . . . . . . . . . . .     . . . . . . . . . . . . . . . . . . . . . . . . . . . . . . . . . .     . . . . . . . . . . . . . ",
". . . . . . . . . . . . .     . . . . . . . . . . . . . . . . . . . . . . . . . . . . . . . . . .     . . . . . . . . . . . . . ",
". . . . . . . . . . . . .     . . . . . . . . . . . . . . . . . . . . . . . . . . . . . . . . . .     . . . . . . . . . . . . . ",
". . . . . . . . . . . . .     . . . . . . . . . . . . . . . . . . . . . . . . . . . . . . . . . .     . . . . . . . . . . . . . ",
". . . . . . . . . . . . .     . . . . . . . . . . . . . . . . . . . . . . . . . . . . . . . . . .     . . . . . . . . . . . . . ",
"                                                                                                                                ",
"                                                                                                                                ",
"  . . . . . . . . . . . . . . . . . . . . . . . . . . . . . .     . . . . . . . . . . . . . . . . . . . . . . . . . . . . . .   ",
"  . . . . . . . . . . . . . . . . . . . . . . . . . . . . . .     . . . . . . . . . . . . . . . . . . . . . . . . . . . . . .   ",
"  . . . . . . . . . . . . . . . . . . . . . . . . . . . . . .     . . . . . . . . . . . . . . . . . . . . . . . . . . . . . .   ",
"  . . . . . . . . . . . . . . . . . . . . . . . . . . . . . .     . . . . . . . . . . . . . . . . . . . . . . . . . . . . . .   ",
"  . . . . . . . . . . . . . . . . . . . .                                               . . . . . . . . . . . . . . . . . . .   ",
"  . . . . . . . . .                                                                                           . . . . . . . .   ",
"  . . . . . . . . .                                                                                           . . . . . . . .   ",
"  . . . . . . . .                           W.W.Y.J.J.A.N.N.c.h.h.p.r.9.9.3.;.;.#.....                          . . . . . . .   ",
"  . . . . . . . .       ,X-X-X#X X X[.).).!.R.R.P.F.F.V.n.n.l.d.d.y.q.5.5.,.&.&.O.| | ` ! ! Y G G C m m j       . . . . . . .   ",
"  . . . . . . . .       ,X-X-X#X X X[.).).!.R.R.P.F.F.V.n.n.l.d.d.y.q.5.5.,.&.&.O.| | ` ! ! Y G G C m m j       . . . . . . .   ",
"  . . . . . .           >X&X&XOX}.}.`././.W.U.U.J.A.A.M.                  -.@.@. .[ [ ^ R R L S S N x x f           . . . . .   ",
"  . . . . .         ,X,X=X@X@X X].].(.                                                      F C C b h h s r r         . . . .   ",
"                  ,X:X:X%XoXoX                              i.e.e.7.1.                              d d u 9 9 2                 ",
"                  ,X:X:X%XoXoX                              i.e.e.7.1.                              d d u 9 9 2                 ",
". . . .       ,X,X,X*X*X@X|.|.            L.S.S.N.v.v.h.a.a.t.9.9.4.:.$.$.o.{ { ( W W I             a a w 4 4 : % %       . . . ",
". . .         ,X,X;X$X$XXX{.{._.~.~.E.I.I.G.C.C.m.z.z.f.u.u.w.7.7.,.=.+.+.| ' ' ~ T T H Z Z m l l d t t 8 1 1 * + +         . . ",
". . .         >X>X*X+X+X|.'.'./.W.W.Y.K.K.A.N.N.c.h.h.p.r.r.9.3.3.;.#.....[ ( ( E L L D B B c g g i q q 3 : : $ o o         . . ",
". . .         >X>X*X+X+X|.'.'./.W.W.Y.K.K.A.N.N.c.h.h.p.r.r.9.3.3.;.#.....[ ( ( E L L D B B c g g i q q 3 : : $ o o         . . ",
". . . .       -X-X#X.X.X[.).).!.R.R.P.F.F.V.n.n.l.d.d.y.q.q.5.,.,.&.O.| | ` ! ! Y G G C m m k s s t 7 7 < * * O X X       . . . ",
". . . .           OX}.}.`././.W.U.U.J.A.A.M.c.c.g.i.i.r.9.9.2.-.-.@. .[ [ / R R L S S N x x f u u q 3 3 - @ @ o           . . . ",
". . . . . .         ].].(.!.!.T.L.L.F.B.B.b.k.k.s.t.t.q.5.5.>.%.%.O.} ) ) Q U U F C C b h h s r r 6 , , % O O         . . . . . ",
". . . . . .         ].].(.!.!.T.L.L.F.B.B.b.k.k.s.t.t.q.5.5.>.%.%.O.} ) ) Q U U F C C b h h s r r 6 , , % O O         . . . . . ",
". . . . . . .           ^.E.E.U.H.H.Z.M.M.x.f.f.i.e.e.7.1.1.=.+.+. .' ~ ~ R J J A M M l d d u 9 9 2 = = +           . . . . . . ",
". . . . . . . . .       Q.Y.Y.L.D.D.N.v.v.j.a.a.t.0.0.4.:.:.%.o.o.{ ) W W I F F V v v h a a e 5 5 > % % O       . . . . . . . . ",
"                          I.I.G.C.C.m.z.z.f.u.u.w.7.7.<.=.=.+.| | ' ~ T T J Z Z m l l d t t 8 2 2 * + +                         ",
"                          I.I.G.C.C.m.z.z.f.u.u.w.7.7.<.=.=.+.| | ' ~ T T J Z Z m l l d t t 8 2 2 * + +                         ",
". . . . . . . . . .           A.N.N.c.h.h.a.r.r.9.4.4.;.$.$...[ [ ( E L L D B B c g g i q q 4 : : $           .     . . . . . . ",
". . . . . . . . . . . .         n.n.z.d.d.y.w.w.6.,.,.*.O.O.| ' ' ! Y H H C m m l s s t 8 8 < * *         . . .     . . . . . . ",
". . . . . . . . . . . . .       c.c.g.i.i.r.9.9.2.-.-.@. . .[ / / R L S S N c c f u u q 3 3 - # #       . . . .     . . . . . . ",
". . . . . . . . . . . . .       c.c.g.i.i.r.9.9.2.-.-.@. . .[ / / R L S S N c c f u u q 3 3 - # #       . . . .     . . . . . . ",
". . . . . . . . . . . . .           s.t.t.q.5.5.>.&.&.O.} } _ Q Q U F C C b h h s r r 6 , , &           . . . .     . . . . . . ",
". . . . . . . . . . . . . . .         r.r.8.1.1.-.+.+. .] ] ~ R R K A M M z d d u 0 0 2 - -         . . . . . .     . . . . . . ",
". . . . . . . . . . . . . . .         r.r.8.1.1.-.+.+. .] ] ~ R R K A M M z d d u 0 0 2 - -         . . . . . .     . . . . . . ",
". . . . . . . . . . . . . . . .           4.>.>.%.o.o.{ ) ) W I I F V v v h a a e 5 5 >           . . . . . . .     . . . . . . ",
". . . . . . . . . . . . . . . . . .       <.=.=.+.| | ' ~ ~ T J J Z m l l d y y 8 2 2 *       . . . . . . . . .     . . . . . . ",
". . . . . . . . . . . . . . . . . .         $.$.X.[ [ ( E E P D D B c g g i q q 4 : :         . . . . . . . . .     . . . . . . ",
"                                            $.$.X.[ [ ( E E P D D B c g g i q q 4 : :                                           ",
"                                                | ' ' ! Y Y H C C m l s s t 8 8 <                                               ",
"  . . . . . . . . . . . . . . . . . . . .       [ / / R L L S N N c f u u q 3 3 ;       . . . . . . . . . . . . . . . . . . .   ",
"  . . . . . . . . . . . . . . . . . . . .         Q Q U F F C n n h s r r 6 , ,         . . . . . . . . . . . . . . . . . . .   ",
"  . . . . . . . . . . . . . . . . . . . .         Q Q U F F C n n h s r r 6 , ,         . . . . . . . . . . . . . . . . . . .   ",
"  . . . . . . . . . . . . . . . . . . . . .           K A A M z z d u 0 0 2           . . . . . . . . . . . . . . . . . . . .   ",
"  . . . . . . . . . . . . . . . . . . . . . . .         V V v h h a e 5 5         . . . . . . . . . . . . . . . . . . . . . .   ",
"  . . . . . . . . . . . . . . . . . . . . . . . .       m m l d d y 8 2 2       . . . . . . . . . . . . . . . . . . . . . . .   ",
"  . . . . . . . . . . . . . . . . . . . . . . . .       m m l d d y 8 2 2       . . . . . . . . . . . . . . . . . . . . . . .   ",
"  . . . . . . . . . . . . . . . . . . . . . . . .           g p p w 4           . . . . . . . . . . . . . . . . . . . . . . .   ",
"  . . . . . . . . . . . . . . . . . . . . . . . . . .         t t 8         . . . . . . . . . . . . . . . . . . . . . . . . .   ",
"  . . . . . . . . . . . . . . . . . . . . . . . . . . .                   . . . . . . . . . . . . . . . . . . . . . . . . . .   ",
"  . . . . . . . . . . . . . . . . . . . . . . . . . . .                   . . . . . . . . . . . . . . . . . . . . . . . . . .   ",
"  . . . . . . . . . . . . . . . . . . . . . . . . . . . . .           . . . . . . . . . . . . . . . . . . . . . . . . . . . .   ",
"                                                                                                                                ",
"                                                                                                                                ",
". . . . . . . . . . . . .     . . . . . . . . . . . . . . . .       . . . . . . . . . . . . . . .     . . . . . . . . . . . . . ",
". . . . . . . . . . . . .     . . . . . . . . . . . . . . . . . . . . . . . . . . . . . . . . . .     . . . . . . . . . . . . . ",
". . . . . . . . . . . . .     . . . . . . . . . . . . . . . . . . . . . . . . . . . . . . . . . .     . . . . . . . . . . . . . ",
". . . . . . . . . . . . .     . . . . . . . . . . . . . . . . . . . . . . . . . . . . . . . . . .     . . . . . . . . . . . . . ",
". . . . . . . . . . . . .     . . . . . . . . . . . . . . . . . . . . . . . . . . . . . . . . . .     . . . . . . . . . . . . . "
};
