/* XPM */
static char *dd72bedcff2544e49fb2f218a311ac51YaaA7F15RqU9JxUy[] = {
/* columns rows colors chars-per-pixel */
"32 32 89 1 ",
"  c #0C0505",
". c #100707",
"X c #120808",
"o c #170B0B",
"O c #150D0D",
"+ c #180B0B",
"@ c #190C0C",
"# c #1D0F0F",
"$ c #16110B",
"% c #1F180F",
"& c #1F1010",
"* c #211111",
"= c #271414",
"- c #281515",
"; c #2C1717",
": c #2B1919",
"> c #2F1919",
", c #301A19",
"< c #3B2C0F",
"1 c #3B2C10",
"2 c #3E2F10",
"3 c #3B2817",
"4 c #3F3011",
"5 c #413112",
"6 c #453314",
"7 c #463415",
"8 c #483516",
"9 c #483418",
"0 c #4C361A",
"q c #4F381B",
"w c #523B1C",
"e c #5B431C",
"r c #624B1D",
"t c #71581D",
"y c #5C472E",
"u c #574829",
"i c #58492A",
"p c #5E4E2D",
"a c #654D26",
"s c #675425",
"d c #685526",
"f c #6B5827",
"g c #60502E",
"h c #65542D",
"j c #68572E",
"k c #6E5929",
"l c #715A29",
"z c #745C2D",
"x c #645231",
"c c #685233",
"v c #6A5334",
"b c #6C5436",
"n c #725B36",
"m c #715A38",
"M c #7D6626",
"N c #776229",
"B c #78622A",
"V c #7F6628",
"C c #7C652C",
"Z c #786632",
"A c #7B6834",
"S c #826827",
"D c #81672F",
"F c #82682A",
"G c #876C29",
"H c #836830",
"J c #846931",
"K c #846D32",
"L c #886D34",
"P c #8F7732",
"I c #8F7536",
"U c #8B763A",
"Y c #8E793B",
"T c #927834",
"R c #907B3C",
"E c #917C3D",
"W c #947E3E",
"Q c #987C3A",
"! c #96803E",
"~ c #998340",
"^ c #9B8541",
"/ c #9C8641",
"( c #9F8843",
") c #A08A43",
"_ c #A18B44",
"` c #A38C44",
"' c #A48D45",
"] c #A08F5B",
"[ c #CBC7C4",
/* pixels */
">>>   o>>>>>>>>>>-. o>>>>>>>>>>>",
">>>.  &>>>>>>>>>>*   ;>>>>>>>>>>",
">>>X  @>>>>>>>>>>*   ;>>>>>>>>>>",
">>>X  o>>>>>>>>>>*   ;>>>>>>>>>>",
">>>o  o>eqqqqqqqq8<<10qt>>>>>>>>",
">>>o  X>azbbbmmbbxuuivzb>>>>>>>>",
">>>@  X>zw''''/!)'''''wm>>>>>#o:",
">-*o  .&k8'''''`ER!(''6x@@ooX   ",
"*       f2''`EYYEYWEYE4p        ",
"#       s2EE!(''/W''`(4p        ",
"-o      d4(/!~(!/_''''5gX   XO+>",
">>>>>>>>IVNNCKKJJJHJJJFL-   ->>>",
">>>>>>>>F6'''''''''(''wL=   ->>>",
">>>>>>>>F7'))''`/!!E`'wL=   ->>>",
">>>>>>>>F8'~YYYE^`'!''wL=   ->>>",
">>>>>>>>F8'''`_/~!~E''wL-   ->>>",
">>>>>>>>TluuuvbbbbbnbyzL-   ->>>",
">>>>>>>>Fq`(/^/`'''''$wL=   ->>>",
">>>>>>>>F0R~WEEYYREW][qJ=   ->>>",
">>>>>>>>F0)E~''''(~UA$qJ-   ->>>",
">-------F0''/)'''''!Z%qJ-   ->>>",
"*       PduuuuuuuuiiiidN.      o",
"X       M<'''''/!!!/''<N        ",
"#       M<''_~!YE!!/''<N        ",
">-=*   *F9''^)'_W_''''6C#######*",
">>>-   -Fq''''''_!^'''qJ>>>>>>>>",
">>>-   -TzbbbbbbbchjuvzJ>>>>>>>>",
">>>-   =Fq'''''''''_''qJ>>>>>>>>",
">>>-   =Fq'''^~!!!!~`'qJ>>>>>>>>",
">>>-   =Fq'''((`''''''qJ>>>>>>>>",
">>>-   3Srwwwqqqq9<<10eJ,>>>>>>>",
">>>>X  -JGJJJJJJJDNNBHFQ>>>>>>>>"
};
