/* XPM */
static char *aad096d4324a46d9e8e84b5a7892ecfcIuUZtJZAdc22bEVU[] = {
/* columns rows colors chars-per-pixel */
"64 64 74 1 ",
"  c black",
". c #16110B",
"X c #1F180F",
"o c #3B2C0F",
"O c #3B2C10",
"+ c #3E2F10",
"@ c #3F3011",
"# c #413112",
"$ c #453314",
"% c #463415",
"& c #483516",
"* c #483418",
"= c #4C361A",
"- c #4F381B",
"; c #523B1C",
": c #663931",
"> c #5B431C",
", c #624B1D",
"< c #71581D",
"1 c #5C472E",
"2 c #574829",
"3 c #58492A",
"4 c #5E4E2D",
"5 c #654D26",
"6 c #675425",
"7 c #685526",
"8 c #6B5827",
"9 c #60502E",
"0 c #65542D",
"q c #68572E",
"w c #6E5929",
"e c #715A29",
"r c #745C2D",
"t c #645231",
"y c #685233",
"u c #6A5334",
"i c #6C5436",
"p c #725B36",
"a c #715A38",
"s c #7D6626",
"d c #776229",
"f c #78622A",
"g c #7F6628",
"h c #7C652C",
"j c #786632",
"k c #7B6834",
"l c #826827",
"z c #81672F",
"x c #82682A",
"c c #876C29",
"v c #836830",
"b c #846931",
"n c #846D32",
"m c #886D34",
"M c #8F7732",
"N c #8F7536",
"B c #8B763A",
"V c #8E793B",
"C c #927834",
"Z c #907B3C",
"A c #917C3D",
"S c #947E3E",
"D c #987C3A",
"F c #96803E",
"G c #998340",
"H c #9B8541",
"J c #9C8641",
"K c #9F8843",
"L c #A08A43",
"P c #A18B44",
"I c #A38C44",
"U c #A48D45",
"Y c #A08F5B",
"T c #CBC7C4",
/* pixels */
":::::::::::::  ::::::::::::::::::::::::::::::::::  :::::::::::::",
":::::::::::::  ::::::::::::::::::::::::::::::::::  :::::::::::::",
":::::::::::::  ::::::::::::::::::::::::::::::::::  :::::::::::::",
":::::::::::::  ::::::::::::::::::::::::::::::::::  :::::::::::::",
":::::::::::::  ::::::::::::::::::::::::::::::::::  :::::::::::::",
"                                                                ",
"                                                                ",
" ::::::::::::::::::::::::::::::  :::::::::::::::::::::::::::::: ",
" :::::::::::::::>>----------------&&ooooOO==--<<::::::::::::::: ",
" :::::::::::::::>>----------------&&ooooOO==--<<::::::::::::::: ",
" :::::::::::::::55rriiiiiiaaaaiiiitt222233uurrii::::::::::::::: ",
" :::::::::::::::55rriiiiiiaaaaiiiitt222233uurrii::::::::::::::: ",
" :::::::::::::::rr;;UUUUUUUUJJFFLLUUUUUUUUUU;;aa::::::::::::::: ",
" :::::::::::::::rr;;UUUUUUUUJJFFLLUUUUUUUUUU;;aa::::::::::::::: ",
" :::::::::::::::ww&&UUUUUUUUUUIIAAZZFFKKUUUU$$tt::::::::::::::: ",
" :::::::::::::::ww&&UUUUUUUUUUIIAAZZFFKKUUUU$$tt::::::::::::::: ",
" :::::::::::::::88++UUUUIIAAVVVVAAVVSSAAVVAA@@44::::::::::::::: ",
" :::::::::::::::88++UUUUIIAAVVVVAAVVSSAAVVAA@@44::::::::::::::: ",
" :::::::::::::::66++AAAAFFKKUUUUJJSSUUUUIIKK@@44::::::::::::::: ",
"                66++AAAAFFKKUUUUJJSSUUUUIIKK@@44                ",
"                77@@KKJJFFGGKKFFJJPPUUUUUUUU##99                ",
"::::::::::::  ::77@@KKJJFFGGKKFFJJPPUUUUUUUU##99::::::::::::::::",
"::::::::::::  ::NNggddddhhnnnnbbbbbbvvbbbbbbxxmm::::::::::::::::",
"::::::::::::  ::NNggddddhhnnnnbbbbbbvvbbbbbbxxmm::::::::::::::::",
"::::::::::::  ::xx$$UUUUUUUUUUUUUUUUUUKKUUUU;;mm::::::::::::::::",
"::::::::::::  ::xx$$UUUUUUUUUUUUUUUUUUKKUUUU;;mm::::::::::::::::",
"::::::::::::  ::xx%%UULLLLUUUUIIJJFFFFAAIIUU;;mm::::::::::::::::",
"::::::::::::  ::xx%%UULLLLUUUUIIJJFFFFAAIIUU;;mm::::::::::::::::",
"::::::::::::  ::xx&&UUGGVVVVVVAAHHIIUUFFUUUU;;mm::::::::::::::::",
"::::::::::::  ::xx&&UUGGVVVVVVAAHHIIUUFFUUUU;;mm::::::::::::::::",
"::::::::::::  ::xx&&UUUUUUIIPPJJGGFFGGAAUUUU;;mm::::::::::::::::",
"                xx&&UUUUUUIIPPJJGGFFGGAAUUUU;;mm                ",
"                CCee222222uuiiiiiiiiiippii11rrmm                ",
"::::::::::::::::CCee222222uuiiiiiiiiiippii11rrmm::::::::  ::::::",
"::::::::::::::::xx--IIKKJJHHJJIIUUUUUUUUUU..;;mm::::::::  ::::::",
"::::::::::::::::xx--IIKKJJHHJJIIUUUUUUUUUU..;;mm::::::::  ::::::",
"::::::::::::::::xx==ZZGGSSAAAAVVVVZZAASSYYTT--bb::::::::  ::::::",
"::::::::::::::::xx==ZZGGSSAAAAVVVVZZAASSYYTT--bb::::::::  ::::::",
"::::::::::::::::xx==LLAAGGUUUUUUUUKKGGBBkk..--bb::::::::  ::::::",
"::::::::::::::::xx==LLAAGGUUUUUUUUKKGGBBkk..--bb::::::::  ::::::",
"::::::::::::::::xx==UUUUJJLLUUUUUUUUUUFFjjXX--bb::::::::  ::::::",
"::::::::::::::::xx==UUUUJJLLUUUUUUUUUUFFjjXX--bb::::::::  ::::::",
"::::::::::::::::MM7722222222222222223333333377dd::::::::  ::::::",
"                MM7722222222222222223333333377dd                ",
"                ssooUUUUUUUUUUJJFFFFFFJJUUUUoodd                ",
" :::::::::::::::ssooUUUUUUUUUUJJFFFFFFJJUUUUoodd::::::::::::::: ",
" :::::::::::::::ssooUUUUPPGGFFVVAAFFFFJJUUUUoodd::::::::::::::: ",
" :::::::::::::::ssooUUUUPPGGFFVVAAFFFFJJUUUUoodd::::::::::::::: ",
" :::::::::::::::xx**UUUUHHLLUUPPSSPPUUUUUUUU$$hh::::::::::::::: ",
" :::::::::::::::xx**UUUUHHLLUUPPSSPPUUUUUUUU$$hh::::::::::::::: ",
" :::::::::::::::xx--UUUUUUUUUUUUPPFFHHUUUUUU--bb::::::::::::::: ",
" :::::::::::::::xx--UUUUUUUUUUUUPPFFHHUUUUUU--bb::::::::::::::: ",
" :::::::::::::::CCrriiiiiiiiiiiiiiyy00qq22uurrbb::::::::::::::: ",
" :::::::::::::::CCrriiiiiiiiiiiiiiyy00qq22uurrbb::::::::::::::: ",
" :::::::::::::::xx--UUUUUUUUUUUUUUUUUUPPUUUU--bb::::::::::::::: ",
" :::::::::::::::xx--UUUUUUUUUUUUUUUUUUPPUUUU--bb::::::::::::::: ",
" :::::::::::::::xx--UUUUUUHHGGFFFFFFFFGGIIUU--bb::::::::::::::: ",
"                xx--UUUUUUHHGGFFFFFFFFGGIIUU--bb                ",
"                xx--UUUUUUKKKKIIUUUUUUUUUUUU--bb                ",
":::::::::::::  :xx--UUUUUUKKKKIIUUUUUUUUUUUU--bb:  :::::::::::::",
":::::::::::::  :ll,,;;;;;;--------**ooooOO==>>bb:  :::::::::::::",
":::::::::::::  :ll,,;;;;;;--------**ooooOO==>>bb:  :::::::::::::",
":::::::::::::  :bbccbbbbbbbbbbbbbbzzddddffvvxxDD:  :::::::::::::",
":::::::::::::  :bbccbbbbbbbbbbbbbbzzddddffvvxxDD:  :::::::::::::"
};
