/* XPM */
static char *_4fa31a92e024e57b93fca5183185e54oMczhBl165Gu2Ds3[] = {
/* columns rows colors chars-per-pixel */
"32 32 18 1 ",
"  c #0C0505",
". c #100707",
"X c #140707",
"o c #120808",
"O c #170B0B",
"+ c #150D0D",
"@ c #180B0B",
"# c #190C0C",
"$ c #1C0E0E",
"% c #1F1010",
"& c #200C0C",
"* c #211111",
"= c #241313",
"- c #271414",
"; c #281515",
": c #2D1717",
"> c #2B1919",
", c #2F1919",
/* pixels */
",,,   O,,,,,,,,,,;. O,,,,,,,,,,,",
",,,.  %,,,,,,,,,,*   :,,,,,,,,,,",
",,,o  #,,,,,,,,,,*   :,,,,,,,,,,",
",,,o  O,,,,,,,,,,*   :,,,,,,,,,,",
",,,O  O,,,,,,,,,,*   :,,,,,,,,,,",
",,,O  o,,,,,,,,,,*   :,,,,,,,,,,",
",,,#  o,,,,,,,,,,;  O,,,,,,,,$O>",
",;*O  .%%$$$$$$###OO######OOo   ",
"*                               ",
"$                               ",
";O              #$X..oooo   o+@,",
",,,,,,,,,*  $,;,,,,,,,,,;   ;,,,",
",,,,,,,,,#  o,,,,,,,,,,,-   ;,,,",
",,,,,,,,,#  .,,,,,,,,,,,-   ;,,,",
",,,,,,,,,$   ,,,,,,,,,,,-   ;,,,",
",,,,,,,,,*   ,:,,,,,,,,,;   ;,,,",
",,,,,,,,,*   :,,,,,,,,,,-   ;,,,",
",,,,,,,,,-   :,,,,,,,,,,;   ;,,,",
",,,,,,,,,;   :,,,,,,,,,,-   ;,,,",
",,,,,,,,,;   -,,,,,,,,,,;   ;,,,",
",;;;;;;;;;o  -*#-&:,,,,,;   ;,,,",
"*                              O",
"o                               ",
"$                               ",
",;-*   *==*******$   #%%$$$$$$$*",
",,,;   ;,,,,,,,,,;   ;,,,,,,,,,,",
",,,;   ;,,,,,,,,,;   ;,,,,,,,,,,",
",,,;   -,,,,,,,,,-   ;,,,,,,,,,,",
",,,;   -,,,,,,,,,-   ;,,,,,,,,,,",
",,,;   -,,,,,,,,,=   ;,,,,,,,,,,",
",,,;   -,,,,,,,,,=   ;,,,,,,,,,,",
",,,,o  ;,,,,,,,,,-  .,,,,,,,,,,,"
};
