/* XPM */
static char *result[] = {
/* columns rows colors chars-per-pixel */
"64 64 28 1 ",
"  c black",
". c #7B1C1C",
"X c #4F231B",
"o c #57241A",
"O c #7B2A26",
"+ c #7A2433",
"@ c #7A2F3B",
"# c #663931",
"$ c #753838",
"% c #704339",
"& c #3F3F74",
"* c #952828",
"= c #8F2D3C",
"- c #AC3232",
"; c #B03939",
": c #ED1A1A",
"> c #8F563B",
", c #A44338",
"< c #824E42",
"1 c #C6BF39",
"2 c #FBF236",
"3 c #CB894B",
"4 c #DC9751",
"5 c #E0AA77",
"6 c #43439D",
"7 c #6666B3",
"8 c #EEC39A",
"9 c white",
/* pixels */
"#############  ##################################  #############",
"#############  ##################################  #############",
"#############  ##################################  #############",
"#############  ##################################  #############",
"#############  ##################################  #############",
"                                                                ",
"                                                                ",
" ##############################  ############################## ",
" ##############################  ############################## ",
" ##############################  ############################## ",
" ##############################  ############################## ",
" ##########################               ##################### ",
" ######################     $$$$$$$$$$$$$$             ######## ",
" #################     $$$$$$$$$$$$$$$$$$$$$$     ####  ####### ",
" ################# ##$$$$$$$$$$$$$$$$$$$$$$$#####       ####### ",
" ###############  ####$$$$$$$$$$$$$$$$$$$ #############    #### ",
" ############    #########$$$$$$$$$$##### ############### ##### ",
" ###########   ######  ################### ############   ##### ",
" ##########  #####    ################# ##  #########ooo   #### ",
"            #####   ###################  ##  ######oooooo       ",
"           ooo###        ################    ####oooo oooo      ",
"########  ooooo#### ########################  #oooooo  oooo ####",
"######## oooo ooo##                          ooooo ooo      ####",
"#######  ooooo ooo  3333  9  88888  9  85533  ooo ooo    #######",
"####### ooooo o oo 33335  >  88888  >  885533 oo o ooooo #######",
"###### oooooo oooo 333355   8888888   8885533 oooo oooooo ######",
"###### oooooo  ooo 33355558888888888888885533 ooo  oooooo ######",
"#####  ooooooo  oo 333555888888 8888888885555 oo  ooooooo  #####",
"##### ooooooooo  o 335558888888 8888888855555 o  oooooooXX #####",
"##### o   oooooooo  5 5588888888888888885555  oooooooooXXX  ####",
"#####   XXXoooooooo 5 55888888888888888855 5 ooooooooXXXXX #####",
"      XXXXXXXoooooo 5 5588 88      88 8855 5 oooooooXXXXXX      ",
"      X   XXXXXooooo 55588 8 888888 8 8555  ooooooXXXXXXX       ",
"###### ### XXXX    oo 5888 8888888888 5555 oo    XXXXXXXX ######",
"########## XX    **       8  888888  8       **    XXXXXX ######",
"######### XX ..O *-*--;--   88888888   --;--*-* O.. XXXXX ######",
"########  XX .OO* *-*--;-;;; 888888 ;;;-;--*-* *OO. XXXXX ######",
"########    .O**** **---;;;;;  88  ;;;;;---** ****O.  XXX ######",
"########### ..O*** *---;--;;;;;  ;;;;;--;---* ***O..   XX ######",
"########### .OO*,* **----;;;;;;;;;;;;;;----** *=*OO. # XX ######",
"########### .O*,** -*---;-;;;;;;;;;;;;-;---*- **=*O. # X  ######",
"########### .O@*,* **---;;-;;;;--;;;;-;;---** *=*OO. #    ######",
"########### .+O*** *-------;;;;22;;;;-------* ***O.. ##   ######",
"            ..*** ***---;;-;;;;11;;;;-;;---*** ***..            ",
"             .*5* *-*-----;;;;;--;;;;;-----*-* *5*.             ",
" ########### *558 **----;-;;;;;22;;;;;-;----** 855* ########### ",
" ########### 5588 -*--;;-;-;;;;11;;;;-;-;;--*- 8855 ########### ",
" ########### 5888 *-----;;;;;;;--;;;;;;;-----* 8885 ########### ",
" ########### 5888     ;;;;;;;;;22;;;;;;;;;     8885 ########### ",
" ########### 5888 &&&&       ;;11;;       &&&& 8885 ########### ",
" ###########      &&&&&&&&&&&      &&&&&&&&&&&      ########### ",
" ########### 4488 &&&&&&&&&&&&&&&&&&&&&&&&&&&& 8844 ########### ",
" ########### 4:4: &&&&666&&&&&&&&&&&&&&666&&&& :4:4 ########### ",
" ########### :::  &&&&67777766666666777776&&&&  ::: ########### ",
" ############    &&&&&&666667666666766666&&&&&&    ############ ",
" ############### &&&&&&&&&&6777777776&&&&&&&&&& ############### ",
" ###############    &&&&&&&&66666666&&&&&&&&    ############### ",
"                 ###    &&&&&&&&&&&&&&&&    ###                 ",
"                 %%%####   &&&&&&&&&&   ####%%%                 ",
"#############  # ##%%%%<##     &&     ##<%%%%## #  #############",
"#############  #  #<<<%%##            ##%%<<<#  #  #############",
"#############  #   #%%%##  ##########  ##%%%#   #  #############",
"#############  ##          ##########          ##  #############",
"#############  ###       ##############       ###  #############"
};
