/* XPM */
static char *_d0625699e99471efb498d0face2c99a0iTayrWVCje6E720[] = {
/* columns rows colors chars-per-pixel */
"64 64 69 1 ",
"  c black",
". c #110907",
"X c #140A0A",
"o c #1E120B",
"O c #22140C",
"+ c #28140E",
"@ c #27180E",
"# c #241312",
"$ c #2A1616",
"% c #2D1C10",
"& c #311D14",
"* c #391E13",
"= c #341C1A",
"- c #362214",
"; c #3E2115",
": c #3F2815",
"> c #3D251B",
", c #432517",
"< c #452817",
"1 c #42251B",
"2 c #49271D",
"3 c #452A1D",
"4 c #4C2B1D",
"5 c #512B1D",
"6 c #4D311C",
"7 c #52351C",
"8 c #5B311E",
"9 c #5E3E1F",
"0 c #552E21",
"q c #4C3123",
"w c #4B372F",
"e c #553621",
"r c #5C3222",
"t c #5A3922",
"y c #5A3D2A",
"u c #563B33",
"i c #633623",
"p c #653C24",
"a c #6A3925",
"s c #6E3B26",
"d c #6F3C26",
"f c #733E26",
"g c #753F27",
"h c #663931",
"j c #644123",
"k c #654124",
"l c #6A4623",
"z c #694425",
"x c #6C4725",
"c c #6F4926",
"v c #774027",
"b c #704A24",
"n c #734C27",
"m c #764E27",
"M c #784F27",
"N c #7B4328",
"B c #7C4329",
"V c #774F28",
"C c #785027",
"Z c #795128",
"A c #7C5228",
"S c #6E4A3C",
"D c #5F514B",
"F c #644E45",
"G c #60514C",
"H c #65534E",
"J c #60544F",
"K c #64544F",
"L c #625651",
/* pixels */
"hhhhhhhhhhhhh  hhhhhhhhhhhhhhhhhhhhhhhhhhhhhhhhhh  hhhhhhhhhhhhh",
"hhhhhhhhhhhhh  hhhhhhhhhhhhhhhhhhhhhhhhhhhhhhhhhh  hhhhhhhhhhhhh",
"hhhhhhhhhhhhh  hhhhhhhhhhhhhhhhhhhhhhhhhhhhhhhhhh  hhhhhhhhhhhhh",
"hhhhhhhhhhhhh  hhhhhhhhhhhhhhhhhhhhhhhhhhhhhhhhhh  hhhhhhhhhhhhh",
"hhhhhhhhhhhhh  hhhhhhhhhhhhhhhhhhhhhhhhhhhhhhhhhh  hhhhhhhhhhhhh",
"                                                                ",
"                                                                ",
" hhhhhhhhhhhhhhhhhhhhhhhhhhhhh  hhhhhhhhhhhhhhhhhhhhhhhhhhhhhhh ",
" hhhhhhhhhhhhhhhhhhhhhhhhhhhhh  hhhhhhhhhhhhhhhhhhhhhhhhhhhhhhh ",
" hhhhhhhhhhhhhhhhhhhhhhhhhhhhh  hhhhhhhhhhhhhhhhhhhhhhhhhhhhhhh ",
" hhhhhhhhhhhhhhhhhhhhhhhhhhhhh  hhhhhhhhhhhhhhhhhhhhhhhhhhhhhhh ",
" hhhhhhhhhhhhhhhhhhhhhhhhhhhhh  hhhhhhhhhhhhhhhhhhhhhhhhhhhhhhh ",
" hhhhhhhhhhhhhhhhhhhhhhhhhhhhh  hhhhhhhhhhhhhhhhhhhhhhhhhhhhhhh ",
" hhhhhhhhhhhhhhhhhhhhhhhhhhhhh  hhhhhhhhhhhhhhhhhhhhhhhhhhhhhhh ",
" hhhhhhhhhhhhhhhhhhhhhhhhhhhhh  hhhhhhhhhhhhhhhhhhhhhhhhhhhhhhh ",
" hhhhhhhhhhhhhhhhhhhhhhhhhhhhh  hhhhhhhhhhhhhhhhhhhhhhhhhhhhhhh ",
" hhhhhhhhhhhhhhhhhhhhhhhhhhhhh  hhhhhhhhhhhhhhhhhhhhhhhhhhhhhhh ",
" hhhhhhhhhhhhhhhhhhhhhhhhhhhhh  hhhhhhhhhhhhhhhhhhhhhhhhhhhhhhh ",
" hhhhhhhhhhhhhhhiiffffffffffffffffffffffffffff++hhhhhhhhhhhhhhh ",
"                iiffffffffffffffffffffffffffff++                ",
"                ff55,,,,,,,,,,2222<<,,,,,,;;gg**                ",
"hhhhhhhhhhhh  hhff55,,,,,,,,,,2222<<,,,,,,;;gg**hhhhhhhhhhhhhhhh",
"hhhhhhhhhhhh  hhff,,llmmmmmmmmmmmmmmmmmmmmqqgg22hhhhhhhhhhhhhhhh",
"hhhhhhhhhhhh  hhff,,llmmmmmmmmmmmmmmmmmmmmqqgg22hhhhhhhhhhhhhhhh",
"hhhhhhhhhhhh  hhff**<<llccccccccxxxxxxkk44==gg22hhhhhhhhhhhhhhhh",
"hhhhhhhhhhhh  hhff**<<llccccccccxxxxxxkk44==gg22hhhhhhhhhhhhhhhh",
"hhhhhhhhhhhh  hhff**--99zzzzxxccccccbbmmeehhgg22hhhhhhhhhhhhhhhh",
"hhhhhhhhhhhh  hhff**--99zzzzxxccccccbbmmeehhgg22hhhhhhhhhhhhhhhh",
"hhhhhhhhhhhh  hhff**77bbmmmmmmmmmmmmmmZZpphhgg22hhhhhhhhhhhhhhhh",
"hhhhhhhhhhhh  hhff**77bbmmmmmmmmmmmmmmZZpphhgg22hhhhhhhhhhhhhhhh",
"hhhhhhhhhhhh  hhSSqq@@::66444444333333zztthhgg22hhhhhhhhhhhhhhhh",
"                SSqq@@::66444444333333zztthhgg22                ",
"                LLLLiiiiaaaaaaaaiirrrriirrrrNN44                ",
"hhhhhhhhhhhhhhhhLLLLiiiiaaaaaaaaiirrrriirrrrNN44hhhhhhhh  hhhhhh",
"hhhhhhhhhhhhhhhhHHFF8888aaaaaaNNggssssddffffBB55hhhhhhhh  hhhhhh",
"hhhhhhhhhhhhhhhhHHFF8888aaaaaaNNggssssddffffBB55hhhhhhhh  hhhhhh",
"hhhhhhhhhhhhhhhhgg**--..$$hhhhffrrhhhhhhhhhhgg22hhhhhhhh  hhhhhh",
"hhhhhhhhhhhhhhhhgg**--..$$hhhhffrrhhhhhhhhhhgg22hhhhhhhh  hhhhhh",
"hhhhhhhhhhhhhhhhgg<<bb66jjtt==ffrr==ee11>>==LLGGhhhhhhhh  hhhhhh",
"hhhhhhhhhhhhhhhhgg<<bb66jjtt==ffrr==ee11>>==LLGGhhhhhhhh  hhhhhh",
"hhhhhhhhhhhhhhhhgg<<nnmmZZmm##ff5533mmmmbbyyLLJJhhhhhhhh  hhhhhh",
"hhhhhhhhhhhhhhhhgg<<nnmmZZmm##ff5533mmmmbbyyLLJJhhhhhhhh  hhhhhh",
"hhhhhhhhhhhhhhhhff,,nnmmCCmmoodd<<%%mmmmbb66HHwwhhhhhhhh  hhhhhh",
"                ff,,nnmmCCmmoodd<<%%mmmmbb66HHww                ",
"                ff,,nnmmMMmmOOss<<@@mmmmbb<<ff**                ",
" hhhhhhhhhhhhhhhff,,nnmmMMmmOOss<<@@mmmmbb<<ff**hhhhhhhhhhhhhhh ",
" hhhhhhhhhhhhhhhff;;nnmmmmMMOOss<<@@mmmmbb<<ff**hhhhhhhhhhhhhhh ",
" hhhhhhhhhhhhhhhff;;nnmmmmMMOOss<<@@mmmmbb<<ff**hhhhhhhhhhhhhhh ",
" hhhhhhhhhhhhhhhNN55mmCCVVZZ--ff22OOmmmmnn77ff,,hhhhhhhhhhhhhhh ",
" hhhhhhhhhhhhhhhNN55mmCCVVZZ--ff22OOmmmmnn77ff,,hhhhhhhhhhhhhhh ",
" hhhhhhhhhhhhhhhNNrrmmkkmmZZ33gg55OOmmmmmmeegg44hhhhhhhhhhhhhhh ",
" hhhhhhhhhhhhhhhNNrrmmkkmmZZ33gg55OOmmmmmmeegg44hhhhhhhhhhhhhhh ",
" hhhhhhhhhhhhhhhLLDDnneemmZZ33gg44OOmmmmmmeegg44hhhhhhhhhhhhhhh ",
" hhhhhhhhhhhhhhhLLDDnneemmZZ33gg44OOmmmmmmeegg44hhhhhhhhhhhhhhh ",
" hhhhhhhhhhhhhhhKKuubbttmmZZ44gg44oommmmmmeegg44hhhhhhhhhhhhhhh ",
" hhhhhhhhhhhhhhhKKuubbttmmZZ44gg44oommmmmmeegg44hhhhhhhhhhhhhhh ",
" hhhhhhhhhhhhhhhgg44bbttmmZZ44gg22OOmmmmnneegg44hhhhhhhhhhhhhhh ",
"                gg44bbttmmZZ44gg22OOmmmmnneegg44                ",
"                gg44ccttkkbb33gg2277AACCVVeegg44                ",
"hhhhhhhhhhhhh  hgg44ccttkkbb33gg2277AACCVVeegg44h  hhhhhhhhhhhhh",
"hhhhhhhhhhhhh  hgg44ee33======00&&XX&&%%>>==gg44h  hhhhhhhhhhhhh",
"hhhhhhhhhhhhh  hgg44ee33======00&&XX&&%%>>==gg44h  hhhhhhhhhhhhh",
"hhhhhhhhhhhhh  hggvvggggggggggggggffffffggggNN22h  hhhhhhhhhhhhh",
"hhhhhhhhhhhhh  hggvvggggggggggggggffffffggggNN22h  hhhhhhhhhhhhh"
};
