/* XPM */
static char *_a22315d5719484a86e62df2938f6441Z30SwrGmj8TPbWJP_64[] = {
/* columns rows colors chars-per-pixel */
"64 64 74 1",
"  c #0C0505",
". c #100707",
"X c #110907",
"o c #140A0A",
"O c #1B0E0E",
"+ c #1E120B",
"@ c #1E1010",
"# c #22140C",
"$ c #28140E",
"% c #27180E",
"& c #241312",
"* c #2A1616",
"= c #2D1C10",
"- c #2F1919",
"; c #311D14",
": c #391E13",
"> c #341C1A",
", c #362214",
"< c #3E2115",
"1 c #3F2815",
"2 c #3D251B",
"3 c #382B27",
"4 c #432517",
"5 c #452817",
"6 c #42251B",
"7 c #49271D",
"8 c #452A1D",
"9 c #4C2B1D",
"0 c #512B1D",
"q c #4D311C",
"w c #52351C",
"e c #5B311E",
"r c #5E3E1F",
"t c #552E21",
"y c #4C3123",
"u c #4B372F",
"i c #553621",
"p c #5C3222",
"a c #5A3922",
"s c #5A3D2A",
"d c #4B3935",
"f c #563B33",
"g c #633623",
"h c #653C24",
"j c #6A3925",
"k c #6E3B26",
"l c #6F3C26",
"z c #733E26",
"x c #753F27",
"c c #644123",
"v c #654124",
"b c #6A4623",
"n c #694425",
"m c #6C4725",
"M c #6F4926",
"N c #774027",
"B c #704A24",
"V c #734C27",
"C c #764E27",
"Z c #784F27",
"A c #7B4328",
"S c #7C4329",
"D c #774F28",
"F c #785027",
"G c #795128",
"H c #7C5228",
"J c #6E4A3C",
"K c #5F514B",
"L c #644E45",
"P c #60514C",
"I c #65534E",
"U c #60544F",
"Y c #64544F",
"T c #625651",
"------      oo--------------------**..  oo----------------------",
"------      oo--------------------**..  oo----------------------",
"------..    @@--------------------&&      **--------------------",
"------..    @@--------------------&&      **--------------------",
"------XX    OO--------------------&&      **--------------------",
"------XX    OO--------------------&&      **--------------------",
"------XX    oo--------------------&&      **--------------------",
"------XX    oo--------------------&&      **--------------------",
"------oo    oo--------------------&&      **--------------------",
"------oo    oo--------------------&&      **--------------------",
"------oo    XX--------------------&&      **--------------------",
"------oo    XX--------------------&&      **--------------------",
"------OO    XX--------------------**    oo----------------OOoo--",
"------OO    XX--------------------**    oo----------------OOoo--",
"--**&&oo    ..@@@@OOOOOOOOOOOOOOOOOOooooOOOOOOOOOOOOooooXX      ",
"--**&&oo    ..@@@@OOOOOOOOOOOOOOOOOOooooOOOOOOOOOOOOooooXX      ",
"&&                                                              ",
"&&                                                              ",
"OO                ggzzzzzzzzzzzzzzzzzzzzzzzzzzzz$$              ",
"OO                ggzzzzzzzzzzzzzzzzzzzzzzzzzzzz$$              ",
"**oo              zz004444444444777755444444<<xx::      XXoooo--",
"**oo              zz004444444444777755444444<<xx::      XXoooo--",
"------------------zz44bbCCCCCCCCCCCCCCCCCCCCyyxx77      **------",
"------------------zz44bbCCCCCCCCCCCCCCCCCCCCyyxx77      **------",
"------------------zz::55bbMMMMMMMMmmmmmmvv99>>xx77      **------",
"------------------zz::55bbMMMMMMMMmmmmmmvv99>>xx77      **------",
"------------------zz::,,rrnnnnmmMMMMMMBBCCii--xx77      **------",
"------------------zz::,,rrnnnnmmMMMMMMBBCCii--xx77      **------",
"------------------zz::wwBBCCCCCCCCCCCCCCGGhh--xx77      **------",
"------------------zz::wwBBCCCCCCCCCCCCCCGGhh--xx77      **------",
"------------------JJyy%%11qq999999888888nnaa--xx77      **------",
"------------------JJyy%%11qq999999888888nnaa--xx77      **------",
"------------------TTTTggggjjjjjjjjggppppggppppAA99      **------",
"------------------TTTTggggjjjjjjjjggppppggppppAA99      **------",
"------------------IILLeeeejjjjjjAAxxkkkkllzzzzSS00      **------",
"------------------IILLeeeejjjjjjAAxxkkkkllzzzzSS00      **------",
"---------------->>xx::,,XX**----zzpp----------xx77      **------",
"---------------->>xx::,,XX**----zzpp----------xx77      **------",
"---------------->>xx55BBqqccaa>>zzpp>>ii6622>>TTPP      **------",
"---------------->>xx55BBqqccaa>>zzpp>>ii6622>>TTPP      **------",
"--**************>>xx55VVCCGGCC&&zz0088CCCCBBssTTUU      **------",
"--**************>>xx55VVCCGGCC&&zz0088CCCCBBssTTUU      **------",
"&&              oozz44VVCCFFCC++ll55==CCCCBBqqIIuu            oo",
"&&              oozz44VVCCFFCC++ll55==CCCCBBqqIIuu            oo",
"XX              oozz44VVCCZZCC##kk55%%CCCCBB55zz::              ",
"XX              oozz44VVCCZZCC##kk55%%CCCCBB55zz::              ",
"OO              oozz<<VVCCCCZZ##kk55%%CCCCBB55zz::              ",
"OO              oozz<<VVCCCCZZ##kk55%%CCCCBB55zz::              ",
"--**&&&&      &&**AA00CCFFDDGG,,zz77##CCCCVVwwzz44OOOOOOOOOOOO&&",
"--**&&&&      &&**AA00CCFFDDGG,,zz77##CCCCVVwwzz44OOOOOOOOOOOO&&",
"------**      **>>AAppCCvvCCGG88xx00##CCCCCCiixx99--------------",
"------**      **>>AAppCCvvCCGG88xx00##CCCCCCiixx99--------------",
"------**      **ddTTKKVViiCCGG88xx99##CCCCCCiixx99--------------",
"------**      **ddTTKKVViiCCGG88xx99##CCCCCCiixx99--------------",
"------**      &&33YYffBBaaCCGG99xx99++CCCCCCiixx99--------------",
"------**      &&33YYffBBaaCCGG99xx99++CCCCCCiixx99--------------",
"------**      &&>>xx99BBaaCCGG99xx77##CCCCVViixx99--------------",
"------**      &&>>xx99BBaaCCGG99xx77##CCCCVViixx99--------------",
"------**      &&>>xx99MMaavvBB88xx77wwHHFFDDiixx99--------------",
"------**      &&>>xx99MMaavvBB88xx77wwHHFFDDiixx99--------------",
"------**      &&>>xx99ii88>>>>>>tt;;oo;;==22>>xx99--------------",
"------**      &&>>xx99ii88>>>>>>tt;;oo;;==22>>xx99--------------",
"--------XX    **--xxNNxxxxxxxxxxxxxxzzzzzzxxxxAA77--------------",
"--------XX    **--xxNNxxxxxxxxxxxxxxzzzzzzxxxxAA77--------------"
"----X  *-xNxxxxxxxzzzxxA7-------"
};