/* XPM */
static char *result[] = {
/* columns rows colors chars-per-pixel */
"64 64 3 1 ",
"  c black",
". c gray21",
"X c gray33",
/* pixels */
"XXXXXXXXXXXXXXXXXXXXXXXXXXXXXXXXXXXXXXXXXXXXXXXXXXXXXXXXXXXXXXXX",
"XXXXXXXXXXXXXXXXXXXXXXXXXXXXXXXXXXXXXXXXXXXXXXXXXXXXXXXXXXXXXXXX",
"XXXXXXXXXXXXXXXXXXXXXXXXXXXXXXXXXXXXXXXXXXXXXXXXXXXXXXXXXXXXXXXX",
"XXXXXXXXXXXXXXXXXXXXXXXXXXXXXXXXXXXXXXXXXXXXXXXXXXXXXXXXXXXXXXXX",
"XXXXXXXXXXXXXXXXXXXXXXXXXXXXXXXXXXXXXXXXXXXXXXXXXXXXXXXXXXXXXXXX",
"XXXXXXXXXXXXXXXXXXXXXXXXXXXXXXXXXXXXXXXXXXXXXXXXXXXXXXXXXXXXXXXX",
"XXXXXXXXXXXXXXXXXXXXXXXXXXXXXXXXXXXXXXXXXXXXXXXXXXXXXXXXXXXXXXXX",
"XXXXXXXXXXX  XXXXXXXXXXXXXXXXXXXXXXXXXXXXXXXXXXXXXX  XXXXXXXXXXX",
"XXXXXXXXXX    XXXXXXXXXXXXXXXX    XXXXXXXXXXXXXXXX    XXXXXXXXXX",
"XXXXXXXX.......XXXXXXXXXXXXX...  ...XXXXXXXXXXXXX.......XXXXXXXX",
"XXXXXX..........XXXXXXXXXX.....  .....XXXXXXXXXX..........XXXXXX",
"XXX...............XXXXXX.......  .......XXXXXX...............XXX",
" ..............................  .............................. ",
" ..............................  .............................. ",
" ..............................  .............................. ",
" ..............................  .............................. ",
" ..............................  .............................. ",
" ..............................  .............................. ",
" ..............................  .............................. ",
" ..............................  .............................. ",
" ..............................  .............................. ",
" ..............................  .............................. ",
" ..............................  .............................. ",
"                                                                ",
"                                                                ",
"..............  ................................  ..............",
"..............  ................................  ..............",
"..............  ................................  ..............",
"..............  ................................  ..............",
"..............  ................................  ..............",
"..............  ................................  ..............",
"..............  ................................  ..............",
"..............  ................................  ..............",
"..............  ................................  ..............",
"..............  ................................  ..............",
"..............  ................................  ..............",
"..............  ................................  ..............",
"..............  ................................  ..............",
"..............  ................................  ..............",
"                                                                ",
"                                                                ",
" ..............................  .............................. ",
" ..............................  .............................. ",
" ..............................  .............................. ",
" ..............................  .............................. ",
" ..............................  .............................. ",
" ..............................  .............................. ",
" ..............................  .............................. ",
" ..............................  .............................. ",
" ..............................  .............................. ",
" ..............................  .............................. ",
" ..............................  .............................. ",
" ..............................  .............................. ",
" ..............................  .............................. ",
" ..............................  .............................. ",
"                                                                ",
"                                                                ",
"..............  ................................  ..............",
"..............  ................................  ..............",
"..............  ................................  ..............",
"..............  ................................  ..............",
"..............  ................................  ..............",
"..............  ................................  ..............",
"..............  ................................  .............."
};
