/* XPM */
static char *_ec5df0a3f594f18ba52c11d2b1705ffBtJtTwpu5sLArMqW[] = {
/* columns rows colors chars-per-pixel */
"64 64 26 1 ",
"  c #5F4907",
". c #624B06",
"X c #634C05",
"o c #664E06",
"O c #684F06",
"+ c #604908",
"@ c #695105",
"# c #6D5306",
"$ c #6F5506",
"% c #705606",
"& c #735806",
"* c #755905",
"= c #785B06",
"- c #7B5E05",
"; c #7C5E06",
": c #745908",
"> c #7E6005",
", c #806205",
"< c #836305",
"1 c #836405",
"2 c #846405",
"3 c #886705",
"4 c #8A6905",
"5 c #8C6B05",
"6 c #8E6C05",
"7 c #906D05",
/* pixels */
"....ooooXX..,,%%............................oo;;@@....oo........",
"....ooooXX..,,%%............................oo;;@@....oo........",
"....XXXX....,,%%............................oo,,$$..............",
"....XXXX....,,%%............................oo,,$$..............",
"....oooooo..,,%%................oo..........XX,,$$....ooXX......",
"....oooooo..,,%%................oo..........XX,,$$....ooXX......",
"oo##%%@@**##--%%##############@@$$##########@@--$$@@@@@@>>@@@@..",
"oo##%%@@**##--%%##############@@$$##########@@--$$@@@@@@>>@@@@..",
"##**223322,,,,,,22222222,,22223322222222222222,,,,22222222;;,,OO",
"##**223322,,,,,,22222222,,22223322222222222222,,,,22222222;;,,OO",
"....oo::;;................  $$44%%oo........oo......@@33@@..oo..",
"....oo::;;................  $$44%%oo........oo......@@33@@..oo..",
"......--22..................@@55##..................oo55@@......",
"......--22..................@@55##..................oo55@@......",
"......--44..................@@55$$..................@@55@@......",
"......--44..................@@55$$..................@@55@@......",
"......--44XX................@@55$$..................##55@@......",
"......--44XX................@@55$$..................##55@@......",
"......--44XX..............++oo55$$..................##55@@......",
"......--44XX..............++oo55$$..................##55@@......",
"......==44oo................@@44$$..................@@44@@......",
"......==44oo................@@44$$..................@@44@@......",
"......@@**..................XX&&oo..ooooooooOO@@@@@@@@$$@@@@@@OO",
"......@@**..................XX&&oo..ooooooooOO@@@@@@@@$$@@@@@@OO",
"2244444444444444444444444444444444445555555555776655555555555522",
"2244444444444444444444444444444444445555555555776655555555555522",
"--;;;;;;;;------22,,--====************&&%%%%%%4422%%$$$$$$$$##@@",
"--;;;;;;;;------22,,--====************&&%%%%%%4422%%$$$$$$$$##@@",
"................22,,..........................33>>..............",
"................22,,..........................33>>..............",
"................2211..........................33>>..............",
"................2211..........................33>>..............",
"................,,22..........................22,,..............",
"................,,22..........................22,,..............",
"................,,22..........................22,,..............",
"................,,22..........................22,,..............",
"................;;44..........................22,,..............",
"................;;44..........................22,,..............",
"................%%>>..........................,,;;..............",
"................%%>>..........................,,;;..............",
",,44444444444444444444444444444444444444444444444444445544444422",
",,44444444444444444444444444444444444444444444444444445544444422",
"%%----------------------2222--------;;;;;;;;;;;;;;;;2266>>;;;;--",
"%%----------------------2222--------;;;;;;;;;;;;;;;;2266>>;;;;--",
"........................,,22........................**44oo......",
"........................,,22........................**44oo......",
"........................22,,........................**44oo......",
"........................22,,........................**44oo......",
"........................22,,........................**44oo......",
"........................22,,........................**44oo......",
"........................44>>........................**44oo......",
"........................44>>........................**44oo......",
"........................>>%%........................oo%%XX......",
"........................>>%%........................oo%%XX......",
"%%222222222222222222222222222222222222222222222222222222222222>>",
"%%222222222222222222222222222222222222222222222222222222222222>>",
"$$,,,,,,,,,,2222,,,,,,,,,,,,,,,,,,,,,,,,,,,,,,3333,,,,,,,,,,,,;;",
"$$,,,,,,,,,,2222,,,,,,,,,,,,,,,,,,,,,,,,,,,,,,3333,,,,,,,,,,,,;;",
"............22>>..............................>>22..............",
"............22>>..............................>>22..............",
"............44>>..............................--44oo............",
"............44>>..............................--44oo............",
"............;;%%..............................$$22oo............",
"............;;%%..............................$$22oo............"
};
