/* XPM */
static char *_ae90e3eb29243ada7c6f6782b066805lqHePz3EAPFyiRtE_64[] = {
/* columns rows colors chars-per-pixel */
"64 64 39 1",
"  c #3C310E",
". c #40330E",
"X c #43360C",
"o c #44370C",
"O c #47390C",
"+ c #493A0B",
"@ c #4D3C0A",
"# c #493B0C",
"$ c #513F0A",
"% c #5B4707",
"& c #5D4707",
"* c #5E4807",
"= c #53410A",
"- c #564309",
"; c #574408",
": c #594508",
"> c #624B06",
", c #634C06",
"< c #674F06",
"1 c #684F06",
"2 c #6A5106",
"3 c #6D5306",
"4 c #6F5506",
"5 c #6A5208",
"6 c #715706",
"7 c #735806",
"8 c #775B06",
"9 c #785B06",
"0 c #7B5E05",
"q c #7C5E05",
"w c #7E6005",
"e c #826306",
"r c #836405",
"t c #846406",
"y c #886705",
"u c #8A6905",
"i c #8C6A05",
"p c #8E6C05",
"a c #906D05",
"                                                                ",
"                                                                ",
"                                                                ",
"                                                                ",
"                                                                ",
"                                                                ",
"                                                                ",
"                                                                ",
"      ..##++OO              ==00>>;;OO            OO==--OO      ",
"      ..##++OO              ==00>>;;OO            OO==--OO      ",
"      55tt>>>>::XX        @@22ii33>>&&XX        @@>>33yy<<@@    ",
"      55tt>>>>::XX        @@22ii33>>&&XX        @@>>33yy<<@@    ",
"    oo00uu>>>>>>--        ::22ii33>>>>@@      XX**>>44ii22**XX  ",
"    oo00uu>>>>>>--        ::22ii33>>>>@@      XX**>>44ii22**XX  ",
"    @@00uu>>>>>>**XX      &&22ii44>>>>$$      OO>>>>44ii22>>OO  ",
"    @@00uu>>>>>>**XX      &&22ii44>>>>$$      OO>>>>44ii22>>OO  ",
"    @@00uu,,>>>>**XX      --22ii44>>>>++  XXXX++>>>>33ii22**oo  ",
"    @@00uu,,>>>>**XX      --22ii44>>>>++  XXXX++>>>>33ii22**oo  ",
"--==--00uu,,>>>>>>>>>>**%%::<<ii44>>>>>>>>>>>>>>>>>>33ii22>>**>>",
"--==--00uu,,>>>>>>>>>>**%%::<<ii44>>>>>>>>>>>>>>>>>>33ii22>>**>>",
">>>>>>99uu<<>>>>>>>>>>>>>>>>22uu44>>>>>>>>>>>>>>>>>>22uu22>>>>>>",
">>>>>>99uu<<>>>>>>>>>>>>>>>>22uu44>>>>>>>>>>>>>>>>>>22uu22>>>>>>",
">>>>>>2288>>>>>>>>>>>>>>>>>>,,77<<>><<<<<<<<11222222224422222211",
">>>>>>2288>>>>>>>>>>>>>>>>>>,,77<<>><<<<<<<<11222222224422222211",
"ttuuuuuuuuuuuuuuuuuuuuuuuuuuuuuuuuuuiiiiiiiiiiaappiiiiiiiiiiiitt",
"ttuuuuuuuuuuuuuuuuuuuuuuuuuuuuuuuuuuiiiiiiiiiiaappiiiiiiiiiiiitt",
"00qqqqqqqq000000ttee00999988888888888877666666uutt66444444443322",
"00qqqqqqqq000000ttee00999988888888888877666666uutt66444444443322",
">>>>>>>>>>>>>>>>ttee>>>>>>>>>>>>>>>>>>>>>>>>>>yyww>>>>>>>>>>>>>>",
">>>>>>>>>>>>>>>>ttee>>>>>>>>>>>>>>>>>>>>>>>>>>yyww>>>>>>>>>>>>>>",
">>>>>>>>>>>>>>>>ttrr>>>>>>>>>>>>>>>>>>>>>>>>>>yyww>>>>>>>>>>>>>>",
">>>>>>>>>>>>>>>>ttrr>>>>>>>>>>>>>>>>>>>>>>>>>>yyww>>>>>>>>>>>>>>",
">>>>>>>>>>>>>>>>eett>>>>>>>>>>>>>>>>>>>>>>>>>>ttee>>>>>>>>>>>>>>",
">>>>>>>>>>>>>>>>eett>>>>>>>>>>>>>>>>>>>>>>>>>>ttee>>>>>>>>>>>>>>",
">>>>>>>>>>>>>>>>eett>>>>>>>>>>>>>>>>>>>>>>>>>>ttee>>>>>>>>>>>>>>",
">>>>>>>>>>>>>>>>eett>>>>>>>>>>>>>>>>>>>>>>>>>>ttee>>>>>>>>>>>>>>",
">>>>>>>>>>>>>>>>qquu>>>>>>>>>>>>>>>>>>>>>>>>>>ttee>>>>>>>>>>>>>>",
">>>>>>>>>>>>>>>>qquu>>>>>>>>>>>>>>>>>>>>>>>>>>ttee>>>>>>>>>>>>>>",
">>>>>>>>>>>>>>>>66ww>>>>>>>>>>>>>>>>>>>>>>>>>>eeqq>>>>>>>>>>>>>>",
">>>>>>>>>>>>>>>>66ww>>>>>>>>>>>>>>>>>>>>>>>>>>eeqq>>>>>>>>>>>>>>",
"eeuuuuuuuuuuuuuuuuuuuuuuuuuuuuuuuuuuuuuuuuuuuuuuuuuuuuiiuuuuuutt",
"eeuuuuuuuuuuuuuuuuuuuuuuuuuuuuuuuuuuuuuuuuuuuuuuuuuuuuiiuuuuuutt",
"660000000000000000000000tttt00000000qqqqqqqqqqqqqqqqttppwwqqqq00",
"660000000000000000000000tttt00000000qqqqqqqqqqqqqqqqttppwwqqqq00",
">>>>>>>>>>>>>>>>>>>>>>>>eett>>>>>>>>>>>>>>>>>>>>>>>>88uu<<>>>>>>",
">>>>>>>>>>>>>>>>>>>>>>>>eett>>>>>>>>>>>>>>>>>>>>>>>>88uu<<>>>>>>",
">>>>>>>>>>>>>>>>>>>>>>>>ttee>>>>>>>>>>>>>>>>>>>>>>>>88uu<<>>>>>>",
">>>>>>>>>>>>>>>>>>>>>>>>ttee>>>>>>>>>>>>>>>>>>>>>>>>88uu<<>>>>>>",
">>>>>>>>>>>>>>>>>>>>>>>>ttee>>>>>>>>>>>>>>>>>>>>>>>>88uu<<>>>>>>",
">>>>>>>>>>>>>>>>>>>>>>>>ttee>>>>>>>>>>>>>>>>>>>>>>>>88uu<<>>>>>>",
">>>>>>>>>>>>>>>>>>>>>>>>uuww>>>>>>>>>>>>>>>>>>>>>>>>88uu<<>>>>>>",
">>>>>>>>>>>>>>>>>>>>>>>>uuww>>>>>>>>>>>>>>>>>>>>>>>>88uu<<>>>>>>",
">>>>>>>>>>>>>>>>>>>>>>>>ww66>>>>>>>>>>>>>>>>>>>>>>>><<66,,>>>>>>",
">>>>>>>>>>>>>>>>>>>>>>>>ww66>>>>>>>>>>>>>>>>>>>>>>>><<66,,>>>>>>",
"66ttttttttttttttttttttttttttttttttttttttttttttttttttttttttttttww",
"66ttttttttttttttttttttttttttttttttttttttttttttttttttttttttttttww",
"44eeeeeeeeeetttteeeeeeeeeeeeeeeeeeeeeeeeeeeeeeyyyyeeeeeeeeeeeeqq",
"44eeeeeeeeeetttteeeeeeeeeeeeeeeeeeeeeeeeeeeeeeyyyyeeeeeeeeeeeeqq",
">>>>>>>>>>>>ttww>>>>>>>>>>>>>>>>>>>>>>>>>>>>>>wwtt>>>>>>>>>>>>>>",
">>>>>>>>>>>>ttww>>>>>>>>>>>>>>>>>>>>>>>>>>>>>>wwtt>>>>>>>>>>>>>>",
">>>>>>>>>>>>uuww>>>>>>>>>>>>>>>>>>>>>>>>>>>>>>00uu<<>>>>>>>>>>>>",
">>>>>>>>>>>>uuww>>>>>>>>>>>>>>>>>>>>>>>>>>>>>>00uu<<>>>>>>>>>>>>",
">>>>>>>>>>>>qq66>>>>>>>>>>>>>>>>>>>>>>>>>>>>>>44tt<<>>>>>>>>>>>>",
">>>>>>>>>>>>qq66>>>>>>>>>>>>>>>>>>>>>>>>>>>>>>44tt<<>>>>>>>>>>>>"
">>>>>>q6>>>>>>>>>>>>>>>4t<>>>>>>"
};