/* XPM */
static char *_ae90e3eb29243ada7c6f6782b066805lqHePz3EAPFyiRtE[] = {
/* columns rows colors chars-per-pixel */
"32 32 39 1 ",
"  c #3C310E",
". c #40330E",
"X c #43360C",
"o c #44370C",
"O c #47390C",
"+ c #493A0B",
"@ c #4D3C0A",
"# c #493B0C",
"$ c #513F0A",
"% c #5B4707",
"& c #5D4707",
"* c #5E4807",
"= c #53410A",
"- c #564309",
"; c #574408",
": c #594508",
"> c #624B06",
", c #634C06",
"< c #674F06",
"1 c #684F06",
"2 c #6A5106",
"3 c #6D5306",
"4 c #6F5506",
"5 c #6A5208",
"6 c #715706",
"7 c #735806",
"8 c #775B06",
"9 c #785B06",
"0 c #7B5E05",
"q c #7C5E05",
"w c #7E6005",
"e c #826306",
"r c #836405",
"t c #846406",
"y c #886705",
"u c #8A6905",
"i c #8C6A05",
"p c #8E6C05",
"a c #906D05",
/* pixels */
"                                ",
"                                ",
"                                ",
"                                ",
"   .#+O       =0>;O      O=-O   ",
"   5t>>:X    @2i3>&X    @>3y<@  ",
"  o0u>>>-    :2i3>>@   X*>4i2*X ",
"  @0u>>>*X   &2i4>>$   O>>4i2>O ",
"  @0u,>>*X   -2i4>>+ XX+>>3i2*o ",
"-=-0u,>>>>>*%:<i4>>>>>>>>>3i2>*>",
">>>9u<>>>>>>>>2u4>>>>>>>>>2u2>>>",
">>>28>>>>>>>>>,7<><<<<1222242221",
"tuuuuuuuuuuuuuuuuuiiiiiapiiiiiit",
"0qqqq000te0998888887666ut6444432",
">>>>>>>>te>>>>>>>>>>>>>yw>>>>>>>",
">>>>>>>>tr>>>>>>>>>>>>>yw>>>>>>>",
">>>>>>>>et>>>>>>>>>>>>>te>>>>>>>",
">>>>>>>>et>>>>>>>>>>>>>te>>>>>>>",
">>>>>>>>qu>>>>>>>>>>>>>te>>>>>>>",
">>>>>>>>6w>>>>>>>>>>>>>eq>>>>>>>",
"euuuuuuuuuuuuuuuuuuuuuuuuuuiuuut",
"600000000000tt0000qqqqqqqqtpwqq0",
">>>>>>>>>>>>et>>>>>>>>>>>>8u<>>>",
">>>>>>>>>>>>te>>>>>>>>>>>>8u<>>>",
">>>>>>>>>>>>te>>>>>>>>>>>>8u<>>>",
">>>>>>>>>>>>uw>>>>>>>>>>>>8u<>>>",
">>>>>>>>>>>>w6>>>>>>>>>>>><6,>>>",
"6ttttttttttttttttttttttttttttttw",
"4eeeeetteeeeeeeeeeeeeeeyyeeeeeeq",
">>>>>>tw>>>>>>>>>>>>>>>wt>>>>>>>",
">>>>>>uw>>>>>>>>>>>>>>>0u<>>>>>>",
">>>>>>q6>>>>>>>>>>>>>>>4t<>>>>>>"
};
